HIERARCHY
ROOT Hips
{
  OFFSET 34.8574 102.947 208.455
  CHANNELS 6 Xposition Yposition Zposition Zrotation Xrotation Yrotation
  JOINT RightUpLeg
  {
    OFFSET -8.9458 -8.66707 0.101652
    CHANNELS 3 Zrotation Xrotation Yrotation
    JOINT RightLeg
    {
      OFFSET 0 -44.4227 1.3727
      CHANNELS 3 Zrotation Xrotation Yrotation
      JOINT RightFoot
      {
        OFFSET 0.253549 -42.0924 -1.46059
        CHANNELS 3 Zrotation Xrotation Yrotation
        JOINT RightToes
        {
          OFFSET 0.04 -4.41509 8.4991
          CHANNELS 3 Zrotation Xrotation Yrotation
          End Site
          {
            OFFSET -0.08 -0.137448 9.77979
          }
        }
      }
    }
  }
  JOINT Spine
  {
    OFFSET 0 11.8905 0
    CHANNELS 3 Zrotation Xrotation Yrotation
    JOINT Spine1
    {
      OFFSET 0 25.6574 0.127663
      CHANNELS 3 Zrotation Xrotation Yrotation
      JOINT HEad
      {
        OFFSET 0 8.73416 0.011341
        CHANNELS 3 Zrotation Xrotation Yrotation
        End Site
        {
          OFFSET -0.29 12.7742 2.51395
        }
      }
      JOINT LeftShoulder1
      {
        OFFSET 8.99 -0.362252 -0.22
        CHANNELS 3 Zrotation Xrotation Yrotation
        JOINT LeftArm
        {
          OFFSET 10.2827 -0.00338 0.322123
          CHANNELS 3 Zrotation Xrotation Yrotation
          JOINT LeftForeArm
          {
            OFFSET 32.7669 0.099144 -1.42434
            CHANNELS 3 Zrotation Xrotation Yrotation
            JOINT LeftHand
            {
              OFFSET 27.5643 0.085362 1.02216
              CHANNELS 3 Zrotation Xrotation Yrotation
              End Site
              {
                OFFSET 16.7443 -0.6 1.50291
              }
            }
          }
        }
      }
      JOINT RightShoulder
      {
        OFFSET -8.99 -0.362252 -0.22
        CHANNELS 3 Zrotation Xrotation Yrotation
        JOINT RightArm
        {
          OFFSET -10.2827 -0.00338 0.322123
          CHANNELS 3 Zrotation Xrotation Yrotation
          JOINT RightForeArm
          {
            OFFSET -32.8971 0.099144 -1.42434
            CHANNELS 3 Zrotation Xrotation Yrotation
            JOINT RightHand
            {
              OFFSET -27.4921 0.085362 1.02216
              CHANNELS 3 Zrotation Xrotation Yrotation
              End Site
              {
                OFFSET -16.6312 -0.6 1.50291
              }
            }
          }
        }
      }
    }
  }
  JOINT LeftUpLeg
  {
    OFFSET 8.9458 -8.66707 0.101652
    CHANNELS 3 Zrotation Xrotation Yrotation
    JOINT LeftLeg
    {
      OFFSET 0 -44.4227 1.3727
      CHANNELS 3 Zrotation Xrotation Yrotation
      JOINT LeftFoot
      {
        OFFSET -0.253549 -42.0924 -1.46059
        CHANNELS 3 Zrotation Xrotation Yrotation
        JOINT LeftToes
        {
          OFFSET -0.04 -4.41509 8.4991
          CHANNELS 3 Zrotation Xrotation Yrotation
          End Site
          {
            OFFSET 0.08 -0.047448 9.77979
          }
        }
      }
    }
  }
}
MOTION
Frames:	12
Frame Time:	0.0166667
33.058 102.225 213.386 0.000427621 -0.000289917 -179.926 -2.33293 -23.8309 -0.172378 2.30771 24.4786 -23.3356 0.649973 -6.13476 -0.199694 0.0462048 0.000533964 0.662642 -0.0992167 4.27742 1.14919 5.3937 9.55849 -0.219985 1.37703 -3.17741 4.38839 2.98177e-016 1.59028e-015 4.96962e-016 -90.9982 -28.8968 -15.6303 -20.1582 14.1685 -13.3956 0.368473 9.90896 -0.00117926 -7.2021 0.0909737 0.738651 85.0683 -16.8106 11.4889 26.9032 12.7067 7.99912 -0.369625 9.91382 0.00119885 1.27067 9.01361 -0.0541843 0.16353 25.5806 -4.42609 2.64391 -5.31092 0.060429 4.27983e-012 4.55392e-011 -4.22855e-012 
33.6585 102.476 211.718 0.110745 0.101119 -179.742 -1.8657 -22.7225 0.377667 2.73109 24.7323 -23.7911 0.340752 -7.38189 -0.211096 -0.615634 0.273328 -0.475276 0.0990112 4.32065 1.11759 5.36303 9.19744 -0.203602 1.51603 -2.54292 4.22317 1.2921e-015 4.77083e-015 -0 -90.7773 -29.7216 -15.0681 -19.8049 14.1036 -12.9889 0.368473 9.90896 -0.00117926 -6.88001 0.0962749 0.48388 84.8201 -16.3586 11.4354 27.2005 12.5971 7.67401 -0.369625 9.91382 0.00119885 1.84879 8.434 0.778101 0.499196 27.8976 -4.29054 2.10974 -3.46902 0.0194546 4.39455 1.93946 -3.32642 
34.2562 102.715 210.068 0.207403 0.162195 -179.506 -1.41817 -21.6361 0.838323 3.08492 24.9321 -24.265 0.0428028 -8.59554 -0.225639 -1.05382 0.424354 -1.23483 0.322531 4.37642 1.06917 5.2959 8.797 -0.184984 1.6357 -1.99209 4.06444 4.47266e-016 -4.77083e-015 -3.97569e-016 -90.5019 -30.436 -14.529 -19.508 14.0362 -12.5761 0.368473 9.90896 -0.00117926 -6.57425 0.100967 0.24612 84.6254 -16.0184 11.3014 27.4428 12.5449 7.57712 -0.369625 9.91382 0.00119885 2.37509 7.56595 1.51725 0.914745 30.4562 -4.15557 1.58898 -1.34301 -0.01436 8.86398 4.14537 -6.57886 
34.8574 102.947 208.455 0.246684 0.11927 -179.129 -0.982577 -20.5597 1.16209 3.26998 24.9108 -24.9078 -0.285014 -9.70211 -0.253325 -0.792964 0.255155 -0.772909 0.597647 4.46233 0.969162 5.08887 8.26959 -0.158052 1.71418 -1.62895 3.93289 -5.96354e-016 -1.59028e-015 -0 -90.0807 -30.8755 -14.0306 -19.3664 13.9614 -12.1344 0.368473 9.90896 -0.00117926 -6.27097 0.105053 0.0520669 84.57 -16.0265 10.9147 27.5222 12.6578 8.13676 -0.369625 9.91382 0.00119885 2.77791 5.96401 1.91568 1.39649 33.6183 -3.84838 1.08891 1.63016 -0.0317593 13.5354 7.33642 -9.86226 
35.4328 103.12 206.895 0.311735 0.00205939 -178.677 -0.532852 -19.6282 1.1839 3.27814 24.9678 -25.3273 -0.473226 -10.7884 -0.276251 -0.420035 -0.125131 -0.105164 0.947152 4.57568 0.854531 4.90622 7.72037 -0.132042 1.71983 -1.47756 3.78833 -5.46658e-016 4.77083e-015 -3.97569e-016 -89.6682 -31.0849 -13.6453 -19.3132 13.8874 -11.7069 0.368473 9.90896 -0.00117926 -6.0773 0.106095 -0.110316 84.6033 -16.1205 10.4625 27.5421 12.8402 8.98093 -0.369625 9.91382 0.00119885 3.02049 3.82149 2.35602 2.33981 37.2624 -3.891 0.62717 4.89772 -0.0331991 17.669 10.3918 -12.6341 
35.9489 103.147 205.43 0.509396 -0.208722 -178.186 0.0206652 -19.0838 0.530579 2.93532 25.4956 -24.9305 -0.268248 -11.9267 -0.274026 -0.46376 -0.830608 -0.101726 1.45982 4.73842 0.748292 4.92764 7.21248 -0.115601 1.57089 -1.65912 3.60024 1.2424e-015 0 3.97569e-016 -89.3991 -31.0166 -13.4802 -19.3223 13.8163 -11.2978 0.368473 9.90896 -0.00117926 -6.1627 0.0992607 -0.259489 84.7709 -16.1076 10.069 27.5735 13.0333 9.8745 -0.369625 9.91382 0.00119885 3.03364 1.07285 3.43113 4.78305 41.487 -5.56236 0.151173 8.4533 -0.00249499 20.4859 12.2155 -14.6637 
36.4241 103.132 204 0.726401 -0.429543 -177.662 0.526081 -18.5847 -0.213171 2.63849 26.0595 -24.4778 0.0413101 -13.0872 -0.263318 -0.657326 -1.38947 -0.355983 1.96355 4.89415 0.657524 5.00177 6.78443 -0.104136 1.3936 -1.98631 3.3611 -2.98177e-016 -3.18055e-015 -3.97569e-016 -89.2327 -30.7885 -13.45 -19.3724 13.763 -11.0013 0.368473 9.90896 -0.00117926 -6.32651 0.0917458 -0.349486 84.8847 -16.0166 9.7557 27.6138 13.2384 10.8336 -0.369625 9.91382 0.00119885 3.02295 -1.94569 4.26443 7.63643 45.9284 -6.96705 -0.127746 11.2207 0.0212739 21.0418 13.771 -14.8091 
36.8617 103.16 202.549 0.882129 -0.580298 -177.107 0.809967 -17.8448 -0.483411 2.87137 26.3116 -24.678 0.227911 -14.3062 -0.254087 -1.00735 -1.13813 -0.960831 2.27988 4.98859 0.609593 5.0581 6.47306 -0.095622 1.26251 -2.27211 3.03285 -4.96962e-016 0 7.95139e-016 -89.1782 -30.4823 -13.4774 -19.4288 13.7494 -10.9503 0.368473 9.90896 -0.00117926 -6.39588 0.0902985 -0.333062 84.6932 -15.8216 9.52693 27.6994 13.4534 11.8667 -0.369625 9.91382 0.00119885 2.98113 -4.94534 3.8888 8.85117 50.5194 -5.17826 0.0887815 11.7682 -0.00960178 17.0301 16.1131 -10.7743 
37.2729 103.204 201.115 0.972696 -0.67033 -176.561 0.964868 -16.9594 -0.611107 3.28412 26.3639 -25.1152 0.358375 -15.4587 -0.246677 -1.17418 -0.766152 -1.28725 2.51468 5.03719 0.566794 5.03394 6.3465 -0.0910448 1.2555 -2.63646 2.67659 2.98177e-016 -3.18055e-015 3.97569e-016 -89.2023 -30.1573 -13.6378 -19.5072 13.7582 -11.0329 0.368473 9.90896 -0.00117926 -6.45663 0.091432 -0.232514 84.4307 -15.4961 9.5591 27.7932 13.6349 12.7597 -0.369625 9.91382 0.00119885 2.79031 -7.89061 3.15212 8.85117 54.7204 -2.10711 0.515397 11.1557 -0.057133 11.4348 17.7457 -5.69688 
37.6689 103.289 199.732 0.937646 -0.660097 -176.082 1.00136 -15.8733 -0.636291 3.73408 26.1275 -25.7278 0.377761 -16.3609 -0.250675 -0.668095 -0.890325 -0.427251 2.7001 5.02108 0.494097 4.80046 6.57313 -0.0926936 1.54974 -3.20502 2.33355 8.94531e-016 0 -0 -89.2982 -29.9101 -14.0612 -19.602 13.7698 -11.1327 0.368473 9.90896 -0.00117926 -6.52817 0.0947943 -0.0362323 84.2183 -14.8975 10.1148 27.911 13.7361 13.2741 -0.369625 9.91382 0.00119885 2.48009 -10.6088 2.62797 8.65891 57.9651 0.399046 0.972716 9.9268 -0.101357 7.71324 17.1906 -2.55592 
38.0534 103.36 198.359 0.862116 -0.616606 -175.625 1.01626 -14.7462 -0.860244 4.04315 25.869 -26.1494 0.422291 -17.226 -0.248546 -0.006083 -1.0647 0.688412 2.87966 4.98883 0.410799 4.48586 6.88908 -0.094685 1.92014 -3.77376 2.02538 2.5842e-015 -3.18055e-015 7.95139e-016 -89.3934 -29.706 -14.5024 -19.7399 13.81 -11.3959 0.368473 9.90896 -0.00117926 -6.63706 0.0977266 0.201306 84.1074 -14.3494 10.9313 27.9541 13.7826 13.486 -0.369625 9.91382 0.00119885 2.1084 -13.1898 2.17571 8.01153 60.4142 2.4764 1.43232 8.19822 -0.134574 4.8057 15.6482 -0.23705 
38.4384 103.354 196.955 0.825371 -0.586466 -175.161 1.16931 -13.7338 -1.75609 3.89791 25.9013 -25.8168 0.662335 -18.2679 -0.219159 0.368833 -0.948379 1.29744 3.12026 4.9935 0.323102 4.19278 7.07142 -0.0912168 2.19079 -4.14898 1.80574 1.19271e-015 6.36111e-015 -0 -89.3954 -29.5156 -14.7394 -19.9797 13.8996 -11.9581 0.368473 9.90896 -0.00117926 -6.82373 0.0970432 0.416139 84.25 -14.2023 11.8455 27.7846 13.7759 13.3531 -0.369625 9.91382 0.00119885 1.77279 -15.6638 1.86497 7.11011 62.0979 3.05363 1.82129 6.15901 -0.138745 2.48627 13.7897 1.41701 
